<svg width="35" height="32" viewBox="0 0 35 32" fill="none" xmlns="http://www.w3.org/2000/svg">
<path d="M17.279 8.375C17.279 8.375 21.25 4.00367 31.2314 4.00367C31.403 3.99646 31.5743 4.02405 31.7351 4.0848C31.8958 4.14555 32.0425 4.23819 32.1665 4.35715C32.2904 4.47611 32.389 4.61893 32.4563 4.777C32.5236 4.93507 32.5582 5.10512 32.5581 5.27692V25.649C32.5584 25.978 32.4312 26.2944 32.2033 26.5318C31.9755 26.7691 31.6645 26.9091 31.3358 26.9222C26.2007 26.9093 21.2247 28.7032 17.279 31.9898C13.3338 28.7023 8.35774 26.9075 3.22232 26.9197C2.89354 26.9065 2.58262 26.7666 2.35474 26.5292C2.12687 26.2919 1.99974 25.9755 2 25.6464V5.27438C1.99985 5.10257 2.03447 4.93252 2.10177 4.77445C2.16908 4.61638 2.26768 4.47356 2.39163 4.3546C2.51559 4.23565 2.66234 4.143 2.82304 4.08225C2.98374 4.02151 3.15508 3.99391 3.32673 4.00112C13.375 4.00112 17.279 8.375 17.279 8.375Z" fill="#0F0518"/>
<path d="M30.1235 7.20001C25.394 7.72562 20.9847 9.24789 18.1235 11.6707V28C20.9847 25.5772 25.394 24.0549 30.1235 23.5293V7.20001Z" fill="#FBFBFC"/>
</svg>
