<svg width="25" height="24" viewBox="0 0 25 24" fill="none" xmlns="http://www.w3.org/2000/svg">
<g clip-path="url(#clip0_946_9830)">
<path d="M12.4999 0.279999C9.64313 0.279151 6.87974 1.29752 4.70667 3.15199C2.53359 5.00645 1.0934 7.57535 0.645062 10.3968C0.196724 13.2182 0.769652 16.1069 2.26083 18.5437C3.752 20.9804 6.06359 22.8052 8.77993 23.69H9.06993C9.21141 23.6988 9.35315 23.6774 9.48573 23.6272C9.61832 23.577 9.73872 23.4993 9.83896 23.399C9.93919 23.2988 10.017 23.1784 10.0671 23.0458C10.1173 22.9132 10.1387 22.7715 10.1299 22.63V22.42C10.1299 22.25 10.1299 22.02 10.1299 21.33C10.1201 21.2645 10.0974 21.2016 10.063 21.1449C10.0287 21.0883 9.98347 21.039 9.92993 21C9.87184 20.953 9.80396 20.9196 9.73128 20.9023C9.6586 20.885 9.58296 20.8842 9.50993 20.9C6.82993 21.48 6.25993 19.8 6.21993 19.69C5.88434 18.8011 5.28396 18.0367 4.49993 17.5C4.45296 17.4594 4.40279 17.4226 4.34993 17.39C4.46614 17.3274 4.59906 17.303 4.72993 17.32C4.98127 17.3549 5.21928 17.4544 5.4208 17.6086C5.62233 17.7628 5.7805 17.9665 5.87993 18.2C6.26678 18.8736 6.89981 19.3709 7.64584 19.5872C8.39187 19.8036 9.19273 19.7221 9.87993 19.36C9.95367 19.3278 10.0185 19.2782 10.069 19.2155C10.1195 19.1529 10.1541 19.0789 10.1699 19C10.2082 18.5374 10.4062 18.1026 10.7299 17.77C10.8018 17.7062 10.8538 17.623 10.8796 17.5304C10.9054 17.4378 10.9039 17.3397 10.8755 17.2479C10.847 17.1561 10.7926 17.0745 10.7189 17.0128C10.6452 16.9511 10.5553 16.9119 10.4599 16.9C8.08993 16.63 5.66993 15.8 5.66993 11.71C5.64995 10.6829 6.02592 9.68745 6.71993 8.93C6.78385 8.8594 6.82628 8.77201 6.84222 8.67812C6.85816 8.58423 6.84696 8.48774 6.80993 8.4C6.53201 7.62353 6.53555 6.77413 6.81993 6C7.74376 6.16376 8.61086 6.55946 9.33993 7.15C9.40016 7.19251 9.46921 7.22088 9.54193 7.233C9.61465 7.24512 9.68917 7.24068 9.75993 7.22C10.6532 6.97768 11.5744 6.85329 12.4999 6.85C13.429 6.85078 14.3537 6.97521 15.2499 7.22C15.3192 7.23912 15.3919 7.24276 15.4627 7.23066C15.5336 7.21856 15.6009 7.19103 15.6599 7.15C16.3901 6.56132 17.2568 6.16584 18.1799 6C18.4522 6.76998 18.4522 7.61002 18.1799 8.38C18.1429 8.46774 18.1317 8.56423 18.1476 8.65812C18.1636 8.75202 18.206 8.8394 18.2699 8.91C18.9568 9.65988 19.3322 10.6432 19.3199 11.66C19.3199 15.75 16.8899 16.57 14.5099 16.84C14.4123 16.8502 14.3198 16.8888 14.2441 16.9512C14.1683 17.0135 14.1125 17.0968 14.0837 17.1906C14.0549 17.2845 14.0544 17.3847 14.0822 17.4788C14.1099 17.573 14.1648 17.6568 14.2399 17.72C14.4614 17.9486 14.6307 18.2226 14.736 18.523C14.8413 18.8234 14.8802 19.1431 14.8499 19.46V22.64C14.845 22.7963 14.8747 22.9518 14.9369 23.0953C14.9992 23.2388 15.0924 23.3668 15.2099 23.47C15.3596 23.5821 15.5334 23.6576 15.7174 23.6906C15.9015 23.7236 16.0907 23.7131 16.2699 23.66C18.968 22.7574 21.2577 20.9254 22.7303 18.4911C24.2029 16.0568 24.7627 13.1784 24.3098 10.3696C23.8568 7.56082 22.4207 5.00431 20.2575 3.15625C18.0944 1.30818 15.345 0.288804 12.4999 0.279999Z" fill="#0F0518"/>
</g>
<defs>
<clipPath id="clip0_946_9830">
<rect width="24" height="24" fill="white" transform="translate(0.5)"/>
</clipPath>
</defs>
</svg>
