<svg width="18" height="23" viewBox="0 0 18 23" fill="none" xmlns="http://www.w3.org/2000/svg">
<path d="M8.9923 18.8186L2.18168 11.7204C1.58299 11.1205 1.18782 10.3469 1.05214 9.5093C0.916462 8.6717 1.04716 7.81253 1.42572 7.05353C1.71167 6.48048 2.12938 5.98375 2.64441 5.60425C3.15944 5.22475 3.75705 4.97336 4.38802 4.87077C5.01898 4.76819 5.66523 4.81735 6.27352 5.01422C6.88181 5.21108 7.43473 5.55001 7.88672 6.00308L9 7.11902L10.1133 6.00308C10.5653 5.55001 11.1182 5.21108 11.7265 5.01422C12.3348 4.81735 12.981 4.76819 13.612 4.87077C14.2429 4.97336 14.8406 5.22475 15.3556 5.60425C15.8706 5.98375 16.2883 6.48048 16.5743 7.05353C16.9528 7.81253 17.0835 8.6717 16.9479 9.5093C16.8122 10.3469 16.417 11.1205 15.8183 11.7204C13.6232 14.009 8.9923 18.8186 8.9923 18.8186Z" stroke="#0F0518" stroke-width="2" stroke-linecap="round" stroke-linejoin="round"/>
</svg>
