<svg width="43" height="42" viewBox="0 0 43 42" fill="none" xmlns="http://www.w3.org/2000/svg">
<g clip-path="url(#clip0_946_3569)">
<path d="M36.5408 16.753C36.3338 15.2188 35.4815 13.9039 33.9352 12.6985L33.0464 12.1019L32.4497 12.9907C31.6948 14.1352 31.3052 15.7302 31.427 17.2522C31.4879 17.7879 31.6583 18.7498 32.2062 19.5899C31.6583 19.8821 30.5747 20.2961 29.1258 20.2718H1.48693L1.43823 20.5883C1.18254 22.1225 1.18254 26.8953 4.28734 30.5724C6.64943 33.3606 10.1804 34.7852 14.8072 34.7852C24.8156 34.7852 32.2184 30.1828 35.6885 21.8059C37.0522 21.8302 39.9865 21.8181 41.4963 18.9324C41.5328 18.8716 41.6302 18.6889 41.8859 18.1532L42.032 17.8488L41.1797 17.2765C40.2665 16.6677 38.1601 16.4486 36.5408 16.753ZM23.598 6.52539H19.3974V10.3486H23.598V6.52539ZM23.598 11.1156H19.3974V14.9266H23.598V11.1156ZM18.6303 11.1156H14.4297V14.9266H18.6303V11.1156ZM13.6626 11.1156H9.46202V14.9266H13.6626V11.1156ZM8.69495 15.6937H4.49433V19.5169H8.69495V15.6937ZM13.6626 15.6937H9.46202V19.5169H13.6626V15.6937ZM18.6303 15.6937H14.4297V19.5169H18.6303V15.6937ZM23.598 15.6937H19.3974V19.5169H23.598V15.6937ZM28.5657 15.6937H24.3651V19.5169H28.5657V15.6937Z" fill="#FBFBFC"/>
</g>
<defs>
<clipPath id="clip0_946_3569">
<rect x="0.329102" width="41.7578" height="41.7578" rx="5.53881" fill="white"/>
</clipPath>
</defs>
</svg>
