<svg width="124" height="37" viewBox="0 0 124 37" fill="none" xmlns="http://www.w3.org/2000/svg">
<g clip-path="url(#clip0_889_509)">
<path d="M40.1855 10.9821C41.033 10.9821 41.837 10.9757 42.6399 10.9927C42.7121 10.9938 42.8194 11.1393 42.8459 11.2349C43.1337 12.2735 43.4088 13.3164 43.6881 14.3583C44.4007 17.0134 45.1144 19.6685 45.8292 22.3235C45.8589 22.4329 45.8929 22.5413 45.9481 22.7292C46.0034 22.5805 46.0363 22.5073 46.0586 22.4308C47.127 18.7562 48.1933 15.0794 49.2627 11.4048C49.4114 10.895 49.3211 10.9885 49.8267 10.9832C50.2961 10.9779 50.7644 10.9789 51.2339 10.9832C51.7415 10.9885 51.6449 10.9078 51.784 11.3867C52.452 13.6871 53.1137 15.9896 53.7785 18.291C54.1831 19.6929 54.5867 21.0937 54.9924 22.4956C55.0094 22.5551 55.0317 22.6124 55.0752 22.7399C55.1549 22.469 55.2207 22.2588 55.2781 22.0463C56.2456 18.4439 57.2131 14.8415 58.1764 11.237C58.2231 11.0607 58.2847 10.9715 58.4928 10.9757C59.1917 10.9906 59.8905 10.981 60.5893 10.9821C60.6583 10.9821 60.7284 10.9906 60.8314 10.998C60.8123 11.0968 60.8017 11.1807 60.7783 11.2614C59.4104 16.1022 58.0404 20.9408 56.68 25.7836C56.612 26.0247 56.5122 26.1001 56.2636 26.0937C55.5032 26.0757 54.7417 26.0799 53.9813 26.0916C53.7753 26.0948 53.6988 26.0268 53.6415 25.8272C52.6495 22.3777 51.6481 18.9314 50.6476 15.4851C50.6189 15.3874 50.5892 15.2897 50.4957 15.1888C50.3842 15.5637 50.2706 15.9375 50.1612 16.3135C49.2341 19.4964 48.3069 22.6783 47.3861 25.8633C47.3351 26.0406 47.2534 26.0948 47.0707 26.0927C46.2742 26.0821 45.4776 26.0821 44.6822 26.0927C44.4931 26.0948 44.4241 26.0247 44.3753 25.8527C43.001 20.9854 41.6235 16.1202 40.2482 11.255C40.227 11.1807 40.2132 11.1042 40.1855 10.9821Z" fill="#0F0518"/>
<path d="M84.8848 15.3176C85.6494 15.3176 86.3971 15.3176 87.1819 15.3176C87.1819 15.7094 87.1819 16.0928 87.1819 16.4762C87.2 16.489 87.218 16.5017 87.2372 16.5145C87.9997 15.4492 89.0575 15.0159 90.3213 15.0266C91.6117 15.0372 92.6227 15.5661 93.3141 16.6865C93.3587 16.6515 93.3906 16.6355 93.4097 16.609C94.1797 15.5087 95.2672 15.0414 96.5756 15.0308C98.0253 15.0191 99.2243 15.5268 100.028 16.7842C100.536 17.5765 100.705 18.4686 100.708 19.3947C100.714 21.5453 100.708 23.6949 100.715 25.8455C100.716 26.0526 100.639 26.0961 100.451 26.0929C99.8583 26.0823 99.2647 26.0781 98.6721 26.095C98.4395 26.1014 98.3726 26.0377 98.3736 25.8009C98.3832 23.766 98.3853 21.7301 98.3736 19.6952C98.3715 19.3363 98.3396 18.9656 98.243 18.6215C97.9796 17.6795 97.2298 17.1697 96.2262 17.1984C95.0601 17.2313 94.2529 17.9142 94.0384 19.0878C93.9694 19.468 93.9471 19.8609 93.945 20.2486C93.9354 22.0806 93.9407 23.9115 93.9407 25.7435C93.9407 25.8476 93.9407 25.9506 93.9407 26.0706C93.8313 26.0781 93.7549 26.0887 93.6773 26.0887C93.0847 26.0897 92.491 26.0781 91.8984 26.095C91.6595 26.1014 91.6011 26.0239 91.6021 25.7945C91.6106 23.7862 91.6117 21.7768 91.6021 19.7685C91.6 19.4 91.5841 19.0187 91.4959 18.664C91.1922 17.448 90.0027 16.8851 88.7453 17.3418C87.8733 17.6583 87.4358 18.3316 87.2765 19.2035C87.2138 19.5487 87.1989 19.9066 87.1968 20.2592C87.1894 22.0997 87.1894 23.9402 87.1979 25.7807C87.1989 26.0175 87.1426 26.1035 86.8899 26.0961C86.2282 26.0781 85.5666 26.0897 84.8858 26.0897C84.8848 22.4905 84.8848 18.92 84.8848 15.3176Z" fill="#0F0518"/>
<path d="M69.8924 16.7573C69.8924 16.2592 69.8924 15.7972 69.8924 15.3204C70.673 15.3204 71.4217 15.3204 72.1938 15.3204C72.1938 18.8973 72.1938 22.4721 72.1938 26.0681C71.4376 26.0681 70.6836 26.0681 69.8945 26.0681C69.8945 25.5881 69.8945 25.1176 69.8945 24.5908C69.8053 24.6737 69.7586 24.7087 69.7214 24.7533C68.7507 25.9248 67.4752 26.3921 65.9873 26.357C63.3269 26.2933 61.1965 24.2234 60.829 21.6214C60.5369 19.5568 61.1136 17.7705 62.6663 16.3399C64.4378 14.7097 67.3509 14.5738 69.1362 16.0362C69.3932 16.2465 69.6173 16.4939 69.8924 16.7573ZM66.4907 24.1416C68.4427 24.1384 69.8924 22.6686 69.8934 20.6932C69.8945 18.7242 68.4342 17.2448 66.4886 17.2427C64.5291 17.2405 63.0624 18.7284 63.0731 20.7081C63.0848 22.6856 64.5376 24.1448 66.4907 24.1416Z" fill="#0F0518"/>
<path d="M105.061 21.69C105.364 22.8965 106.053 23.7036 107.204 24.0297C108.769 24.4726 110.184 24.2421 111.312 22.9061C111.93 23.2671 112.553 23.6304 113.248 24.0361C112.911 24.395 112.624 24.7519 112.285 25.0503C111.339 25.884 110.207 26.2738 108.961 26.3449C107.51 26.4278 106.139 26.1633 104.925 25.3169C103.684 24.4513 102.965 23.2448 102.72 21.7644C102.445 20.1034 102.741 18.5517 103.76 17.186C104.645 16.0018 105.851 15.337 107.306 15.1076C108.463 14.9249 109.587 15.0215 110.646 15.5419C112.269 16.3385 113.202 17.6734 113.591 19.4109C113.741 20.0811 113.756 20.7586 113.679 21.4426C113.654 21.6592 113.568 21.6932 113.379 21.6932C110.724 21.6879 108.069 21.69 105.414 21.69C105.31 21.69 105.205 21.69 105.061 21.69ZM111.326 19.7667C111.4 18.4795 109.974 17.187 108.419 17.136C106.408 17.0702 105.259 18.4168 105.081 19.7667C107.165 19.7667 109.246 19.7667 111.326 19.7667Z" fill="#0F0518"/>
<path d="M76.1776 22.6968C76.2477 22.8348 76.305 22.9623 76.3762 23.0812C76.8912 23.9447 77.7037 24.2452 78.6521 24.2134C79.0408 24.2006 79.4539 24.1273 79.8055 23.9702C80.5829 23.6229 80.6423 22.6554 79.901 22.2465C79.4051 21.9725 78.839 21.8238 78.2984 21.6326C77.7483 21.4383 77.1812 21.2906 76.6417 21.0719C75.2578 20.5122 74.5909 19.6137 74.6111 18.3265C74.6323 16.9193 75.3354 15.9231 76.6204 15.4144C78.3813 14.7177 80.072 14.877 81.596 16.0793C81.9869 16.3883 82.2896 16.7802 82.5359 17.2655C81.8892 17.6288 81.2541 17.9856 80.5977 18.3541C80.5404 18.2649 80.4915 18.1948 80.4469 18.1215C79.8787 17.1923 78.4896 16.8333 77.538 17.3696C76.8201 17.7753 76.7659 18.6494 77.4775 19.0572C77.9225 19.3121 78.4376 19.4512 78.9282 19.6233C79.5708 19.8473 80.2356 20.012 80.8622 20.2711C82.8142 21.0782 83.4153 23.3425 82.1186 24.9663C81.5525 25.6758 80.7719 26.0411 79.9 26.2195C78.6383 26.4776 77.3989 26.4149 76.2105 25.8807C75.3683 25.5027 74.7321 24.8941 74.2893 24.0817C74.1937 23.9054 74.2054 23.8108 74.3933 23.7078C74.9201 23.419 75.4352 23.1078 75.9567 22.8062C76.0236 22.769 76.0958 22.7382 76.1776 22.6968Z" fill="#0F0518"/>
<path d="M115.783 26.0875C115.783 22.4745 115.783 18.9061 115.783 15.3217C116.552 15.3217 117.307 15.3217 118.091 15.3217C118.091 15.8729 118.091 16.4082 118.091 16.9434C118.831 15.6711 119.952 15.1327 121.393 15.1104C121.393 15.943 121.393 16.7597 121.393 17.6221C121.26 17.6221 121.123 17.6157 120.986 17.6231C120.037 17.6762 119.198 17.963 118.618 18.7733C118.273 19.2555 118.115 19.8088 118.11 20.394C118.095 22.1718 118.099 23.9486 118.095 25.7264C118.094 26.0886 118.094 26.0886 117.739 26.0886C117.097 26.0875 116.453 26.0875 115.783 26.0875Z" fill="#0F0518"/>
<path d="M9.83848 14.5054C9.83848 14.5384 9.83848 14.5713 9.83848 14.6042C9.83848 15.7648 9.08534 16.271 8.15936 15.736C7.23337 15.2009 6.48023 13.8264 6.48023 12.6658C6.48023 12.6329 6.48023 12.6 6.48023 12.567L0.837891 9.30756V27.6215L15.4891 36.0789V17.7649L9.83848 14.5054Z" fill="#0F0518"/>
<path d="M17.1647 10.2787C17.1647 10.3116 17.1647 10.3446 17.1647 10.3775C17.1647 11.5381 16.4115 12.0443 15.4855 11.5092C14.5595 10.9742 13.8064 9.59966 13.8064 8.43909C13.8064 8.40617 13.8064 8.37324 13.8064 8.34032L8.16406 5.08496V11.6368L17.1358 16.8182V28.5803L22.8152 31.8604V13.5464L17.1647 10.2787Z" fill="#0F0518"/>
<path d="M24.4889 6.05627C24.4889 6.08919 24.4889 6.12212 24.4889 6.15504C24.4889 7.31561 23.7357 7.82182 22.8097 7.2868C21.8838 6.75179 21.1306 5.37721 21.1306 4.21664C21.1306 4.18372 21.1306 4.15079 21.1306 4.11787L15.4883 0.858398V7.41027L24.4601 12.5917V24.3538L30.1394 27.6338V9.31986L24.4889 6.05627Z" fill="#0F0518"/>
</g>
<defs>
<clipPath id="clip0_889_509">
<rect width="123.07" height="36" fill="white" transform="translate(0 0.44043)"/>
</clipPath>
</defs>
</svg>
