

<svg width="1152" height="737" viewBox="0 0 1152 737" fill="none" xmlns="http://www.w3.org/2000/svg">
<mask id="mask0_917_20013" style="mask-type:alpha" maskUnits="userSpaceOnUse" x="-213" y="0" width="1578" height="737">
<rect width="1578" height="736" transform="matrix(1 0 0 -1 -213 736.879)" fill="url(#paint0_linear_917_20013)"/>
</mask>
<g mask="url(#mask0_917_20013)">
<g filter="url(#filter0_f_917_20013)">
<rect width="798" height="621" rx="310.5" transform="matrix(1 0 0 -1 177 969.879)" fill="url(#paint1_angular_917_20013)"/>
</g>
<g style="mix-blend-mode:overlay">
<path d="M783.292 546.477C716.958 639.251 671.663 733.851 652.078 811.828C642.286 850.813 638.907 885.695 642.575 914.14C646.243 942.586 656.977 964.696 675.503 977.942C694.029 991.188 718.422 994.193 746.526 988.464C774.628 982.734 806.542 968.255 840.265 946.38C907.716 902.627 982.58 829.17 1048.91 736.395C1115.25 643.621 1160.54 549.021 1180.13 471.045C1189.92 432.059 1193.3 397.177 1189.63 368.733C1185.96 340.286 1175.23 318.177 1156.7 304.931C1138.18 291.685 1113.78 288.679 1085.68 294.409C1057.58 300.138 1025.66 314.617 991.94 336.492C924.49 380.245 849.625 453.703 783.292 546.477Z" stroke="url(#paint2_linear_917_20013)" stroke-width="2" stroke-linecap="round" stroke-linejoin="round"/>
</g>
<g style="mix-blend-mode:color-dodge">
<path d="M958.542 823.598C1080.6 843.512 1194.59 840.513 1280.22 819.53C1323.03 809.039 1358.8 794.04 1384.95 775.12C1411.11 756.196 1427.7 733.302 1431.99 707.037C1436.27 680.772 1427.82 653.792 1409.03 627.536C1390.25 601.284 1361.1 575.693 1323.84 552.139C1249.32 505.029 1142.2 465.959 1020.14 446.046C898.075 426.132 784.091 429.131 698.463 450.114C655.651 460.605 619.878 475.604 593.725 494.524C567.568 513.448 550.976 536.342 546.691 562.607C542.406 588.872 550.861 615.852 569.648 642.109C588.431 668.36 617.582 693.951 654.84 717.505C729.359 764.615 836.48 803.685 958.542 823.598Z" stroke="url(#paint3_linear_917_20013)" stroke-width="2" stroke-linecap="round" stroke-linejoin="round"/>
</g>
<circle cx="988.776" cy="698.891" r="340.5" fill="url(#paint4_linear_917_20013)"/>
<g style="mix-blend-mode:overlay">
<circle cx="-8.52372e-06" cy="249.879" r="196" transform="rotate(-90 -8.52372e-06 249.879)" stroke="url(#paint5_linear_917_20013)" stroke-width="2" stroke-linecap="round" stroke-linejoin="round"/>
</g>
</g>
<defs>
<filter id="filter0_f_917_20013" x="57" y="228.879" width="1038" height="861" filterUnits="userSpaceOnUse" color-interpolation-filters="sRGB">
<feFlood flood-opacity="0" result="BackgroundImageFix"/>
<feBlend mode="normal" in="SourceGraphic" in2="BackgroundImageFix" result="shape"/>
<feGaussianBlur stdDeviation="60" result="effect1_foregroundBlur_917_20013"/>
</filter>
<linearGradient id="paint0_linear_917_20013" x1="789" y1="0" x2="789" y2="736" gradientUnits="userSpaceOnUse">
<stop stop-color="#EFF1F6" stop-opacity="0"/>
<stop offset="0.0650886" stop-color="#EFF1F6" stop-opacity="0.01"/>
<stop offset="0.118056" stop-color="#EFF1F6" stop-opacity="0.0324148"/>
<stop offset="0.160767" stop-color="#EFF1F6" stop-opacity="0.0704"/>
<stop offset="0.195086" stop-color="#EFF1F6" stop-opacity="0.120652"/>
<stop offset="0.222878" stop-color="#EFF1F6" stop-opacity="0.181481"/>
<stop offset="0.246008" stop-color="#EFF1F6" stop-opacity="0.2512"/>
<stop offset="0.266341" stop-color="#EFF1F6" stop-opacity="0.328119"/>
<stop offset="0.285742" stop-color="#EFF1F6" stop-opacity="0.410548"/>
<stop offset="0.306075" stop-color="#EFF1F6" stop-opacity="0.4968"/>
<stop offset="0.329205" stop-color="#EFF1F6" stop-opacity="0.585185"/>
<stop offset="0.356998" stop-color="#EFF1F6" stop-opacity="0.674015"/>
<stop offset="0.391317" stop-color="#EFF1F6" stop-opacity="0.7616"/>
<stop offset="0.434027" stop-color="#EFF1F6" stop-opacity="0.846252"/>
<stop offset="0.486995" stop-color="#EFF1F6" stop-opacity="0.926281"/>
<stop offset="0.552083" stop-color="#EFF1F6"/>
</linearGradient>
<radialGradient id="paint1_angular_917_20013" cx="0" cy="0" r="1" gradientUnits="userSpaceOnUse" gradientTransform="translate(399 310.5) rotate(-122.437) scale(284.086 327.389)">
<stop stop-color="#605DE9"/>
<stop offset="0.119792" stop-color="#AC5CE0"/>
<stop offset="0.25" stop-color="#5D2A79"/>
<stop offset="0.395833" stop-color="#605DE9"/>
<stop offset="0.510417" stop-color="#AC5CE0"/>
<stop offset="0.619792" stop-color="#5D2A79"/>
<stop offset="0.744792" stop-color="#AC5CE0"/>
<stop offset="0.875" stop-color="#605DE9"/>
<stop offset="1" stop-color="#5D2A79"/>
</radialGradient>
<linearGradient id="paint2_linear_917_20013" x1="1013" y1="403.379" x2="803.176" y2="523.954" gradientUnits="userSpaceOnUse">
<stop stop-color="#0E061A"/>
<stop offset="1" stop-color="#0E061A" stop-opacity="0"/>
</linearGradient>
<linearGradient id="paint3_linear_917_20013" x1="652.712" y1="483.618" x2="1057.16" y2="668.47" gradientUnits="userSpaceOnUse">
<stop stop-color="#F4A329"/>
<stop offset="1" stop-color="#F4A329" stop-opacity="0"/>
</linearGradient>
<linearGradient id="paint4_linear_917_20013" x1="1065.5" y1="261.381" x2="645.978" y2="678.67" gradientUnits="userSpaceOnUse">
<stop stop-color="#F0F2F5"/>
<stop offset="1" stop-color="#F0F2F5" stop-opacity="0"/>
</linearGradient>
<linearGradient id="paint5_linear_917_20013" x1="-210.708" y1="286.678" x2="-10.8126" y2="341.465" gradientUnits="userSpaceOnUse">
<stop stop-color="#0E061A"/>
<stop offset="1" stop-color="#0E061A" stop-opacity="0"/>
</linearGradient>
</defs>
</svg>

