<svg width="23" height="22" viewBox="0 0 23 22" fill="none" xmlns="http://www.w3.org/2000/svg">
<path d="M10.327 1.75767C10.7795 0.74744 12.2205 0.747443 12.673 1.75768L14.7463 6.38624C14.933 6.8029 15.3286 7.08897 15.7845 7.13685L20.8489 7.66875C21.9542 7.78484 22.3995 9.14858 21.5738 9.88903L17.7909 13.2815C17.4503 13.5869 17.2992 14.0498 17.3943 14.4961L18.4509 19.4534C18.6816 20.5353 17.5158 21.3782 16.553 20.8256L12.1416 18.2937C11.7445 18.0658 11.2555 18.0658 10.8584 18.2937L6.44703 20.8256C5.48421 21.3782 4.31844 20.5353 4.54906 19.4534L5.60568 14.4961C5.7008 14.0498 5.54966 13.5869 5.20912 13.2815L1.42615 9.88903C0.600482 9.14858 1.04577 7.78484 2.15112 7.66875L7.21546 7.13685C7.67135 7.08897 8.06703 6.8029 8.25367 6.38624L10.327 1.75767Z" fill="#EBC645"/>
</svg>
