<svg width="136" height="32" viewBox="0 0 136 32" fill="none" xmlns="http://www.w3.org/2000/svg">
<g opacity="0.4">
<path d="M67.8461 8.51961C62.5354 8.51961 58.7063 11.9577 58.7063 17.1148C58.7063 22.272 63.0164 25.7101 68.3271 25.7101C71.5357 25.7101 74.3642 24.4494 76.1152 22.3245L72.4352 20.2139C71.4635 21.2692 69.9867 21.8852 68.3271 21.8852C66.0229 21.8852 64.0651 20.6914 63.3387 18.7814H76.8175C76.9233 18.2466 76.9858 17.6926 76.9858 17.1101C76.9858 11.9577 73.1568 8.51961 67.8461 8.51961ZM63.2954 15.4435C63.8967 13.5383 65.5419 12.3397 67.8413 12.3397C70.1454 12.3397 71.7906 13.5383 72.3871 15.4435H63.2954ZM119.645 8.51961C114.334 8.51961 110.505 11.9577 110.505 17.1148C110.505 22.272 114.815 25.7101 120.126 25.7101C123.334 25.7101 126.163 24.4494 127.914 22.3245L124.234 20.2139C123.262 21.2692 121.785 21.8852 120.126 21.8852C117.821 21.8852 115.864 20.6914 115.137 18.7814H128.616C128.722 18.2466 128.784 17.6926 128.784 17.1101C128.784 11.9577 124.955 8.51961 119.645 8.51961ZM115.099 15.4435C115.7 13.5383 117.345 12.3397 119.645 12.3397C121.949 12.3397 123.594 13.5383 124.19 15.4435H115.099ZM96.3237 17.1148C96.3237 19.9799 98.2094 21.89 101.134 21.89C103.116 21.89 104.602 20.997 105.367 19.5406L109.062 21.656C107.532 24.1868 104.665 25.7101 101.134 25.7101C95.8186 25.7101 91.9943 22.272 91.9943 17.1148C91.9943 11.9577 95.8234 8.51961 101.134 8.51961C104.665 8.51961 107.527 10.0429 109.062 12.5737L105.367 14.6891C104.602 13.2327 103.116 12.3397 101.134 12.3397C98.2142 12.3397 96.3237 14.2498 96.3237 17.1148ZM136 3.26696V25.2326H131.671V3.26696H136ZM17.7745 0.879395L35.549 31.4402H0L17.7745 0.879395ZM62.2131 3.26696L48.8834 26.1876L35.5538 3.26696H40.5518L48.8834 17.5924L57.2151 3.26696H62.2131ZM90.5512 8.99712V13.6242C90.0702 13.4857 89.5603 13.3902 89.0119 13.3902C86.217 13.3902 84.2015 15.3003 84.2015 18.1654V25.2326H79.8721V8.99712H84.2015V13.3902C84.2015 10.9645 87.0444 8.99712 90.5512 8.99712Z" fill="#0E061A"/>
</g>
</svg>
